<?xml version="1.0" encoding="UTF-8" standalone="no"?>
<svg
   xmlns:dc="http://purl.org/dc/elements/1.1/"
   xmlns:cc="http://creativecommons.org/ns#"
   xmlns:rdf="http://www.w3.org/1999/02/22-rdf-syntax-ns#"
   xmlns:svg="http://www.w3.org/2000/svg"
   xmlns="http://www.w3.org/2000/svg"
   viewBox="0 0 14 19"
   height="19"
   width="14"
   id="svg2"
   version="1.1">
  <metadata
     id="metadata8">
    <rdf:RDF>
      <cc:Work
         rdf:about="">
        <dc:format>image/svg+xml</dc:format>
        <dc:type
           rdf:resource="http://purl.org/dc/dcmitype/StillImage" />
        <dc:title></dc:title>
      </cc:Work>
    </rdf:RDF>
  </metadata>
  <defs
     id="defs6" />
  <path
     id="path3682"
     d="M 3.094236,14.328555 C 1.392406,11.759261 0,8.4627023 0,7.0028696 0,3.7069148 3.779576,0 7.1401371,0 10.307031,0 14,3.8453977 14,7.1430068 14,9.6834744 8.4998128,19 6.9999999,19 6.5536599,19 4.7960663,16.89785 3.094236,14.328555 Z M 9.9184404,12.631966 C 13.555425,6.7472013 12.252334,2.0000001 6.9999999,2.0000001 3.745809,2.0000001 2,3.6871381 2,6.8319661 2,9.414192 5.5917231,16 6.9999999,16 7.4602845,16 8.7735827,14.484385 9.9184404,12.631966 Z M 5.140786,8.6696369 C 3.441589,6.6222305 4.8356122,3.8344809 7.3772776,4.1971281 c 1.5132417,0.2159107 2.1227223,1.0167452 2.1227223,2.789177 0,2.8527543 -2.5662477,3.8437239 -4.3592139,1.6833318 z M 7.9999999,7.0000001 c 0,-0.55 -0.45,-1 -1,-1 -0.55,0 -1,0.45 -1,1 0,0.55 0.45,1 1,1 0.55,0 1,-0.45 1,-1 z"
     style="fill:#c8c8c8" />
</svg>
