<?xml version="1.0" encoding="UTF-8" standalone="no"?>
<svg
   xmlns:dc="http://purl.org/dc/elements/1.1/"
   xmlns:cc="http://creativecommons.org/ns#"
   xmlns:rdf="http://www.w3.org/1999/02/22-rdf-syntax-ns#"
   xmlns:svg="http://www.w3.org/2000/svg"
   xmlns="http://www.w3.org/2000/svg"
   viewBox="0 0 15.063541 20"
   height="20"
   width="15.063541"
   id="svg2"
   version="1.1">
  <metadata
     id="metadata8">
    <rdf:RDF>
      <cc:Work
         rdf:about="">
        <dc:format>image/svg+xml</dc:format>
        <dc:type
           rdf:resource="http://purl.org/dc/dcmitype/StillImage" />
        <dc:title></dc:title>
      </cc:Work>
    </rdf:RDF>
  </metadata>
  <defs
     id="defs6" />
  <g
     transform="translate(0.06354124)"
     id="g12">
    <path
       id="path26"
       d="M 0,13 C 0,9.15 0.35134307,6 0.78076237,6 1.2101817,6 2.0710928,4.65 2.6938983,3 3.6602832,0.43975387 4.3486298,0 7.3897969,0 10.585116,0 11.162386,0.43271308 12.976661,4.1878294 14.295347,6.9171955 15,10.399819 15,14.187829 V 20 H 7.5 0 Z m 13,0.5 V 9 H 7.5 2 V 13.5 18 H 7.5 13 Z M 5.3641933,14.506689 C 5.0178262,13.604071 5.2139392,12.386061 5.8,11.8 7.3236089,10.276391 10.21041,11.668912 9.812423,13.735492 9.3691211,16.037374 6.1647553,16.59292 5.3641933,14.506689 Z M 9.8096291,4.25 C 9.6242686,3.2875 8.5849355,2.5 7.5,2.5 6.4150645,2.5 5.3757314,3.2875 5.1903709,4.25 4.9379436,5.5607496 5.5176609,6 7.5,6 9.4823391,6 10.062056,5.5607496 9.8096291,4.25 Z"
       style="fill:#f3f3f3" />
    <path
       id="path24"
       d="M 0,13.468615 C 0,8.5965883 0.37962948,6.7915529 1.4942564,6.3638304 2.3160975,6.0484604 2.7848636,5.460919 2.5359589,5.0581828 1.635524,3.6012485 5.1697469,0 7.5,0 9.8302531,0 13.364476,3.6012485 12.464041,5.0581828 12.215136,5.460919 12.683903,6.0484604 13.505744,6.3638304 14.620371,6.7915529 15,8.5965883 15,13.468615 V 20 H 7.5 0 Z M 13,13.5 V 9 H 7.5 2 V 13.5 18 H 7.5 13 Z M 6.2543514,14.854351 C 4.9160681,13.516068 5.7292106,11 7.5,11 c 1.8463095,0 2.60878,2.664832 1.1167655,3.903093 -0.8858334,0.735177 -1.5930881,0.720584 -2.3624141,-0.04874 z M 9.8096291,4.25 C 9.6242686,3.2875 8.5849355,2.5 7.5,2.5 6.4150645,2.5 5.3757314,3.2875 5.1903709,4.25 4.9379436,5.5607496 5.5176609,6 7.5,6 9.4823391,6 10.062056,5.5607496 9.8096291,4.25 Z"
       style="fill:#ebebeb" />
    <path
       id="path22"
       d="M 0,13.606989 C 0,8.8468029 0.38311178,7.0669638 1.5,6.6383736 2.325,6.3217914 3,5.2386464 3,4.2313848 3,1.7985202 4.9126932,0 7.5,0 10.087307,0 12,1.7985202 12,4.2313848 12,5.2386464 12.675,6.3217914 13.5,6.6383736 14.616888,7.0669638 15,8.8468029 15,13.606989 V 20 H 7.5 0 Z M 13,13.5 V 9 H 7.5 2 V 13.5 18 H 7.5 13 Z m -7.3246574,0.842009 c -0.3618949,-0.361895 -0.1521895,-1.267444 0.466012,-2.012331 0.8442932,-1.017311 1.4615225,-1.074224 2.4803136,-0.228702 0.745971,0.619101 1.1097079,1.52465 0.8083043,2.012331 -0.6427233,1.039948 -2.811292,1.17204 -3.7546299,0.228702 z M 9.819551,4.75 C 9.6098096,3.2731837 8.8127256,2.5 7.5,2.5 6.1872744,2.5 5.3901904,3.2731837 5.180449,4.75 4.9183206,6.5956803 5.3351385,7 7.5,7 9.6648615,7 10.081679,6.5956803 9.819551,4.75 Z"
       style="fill:#e2e2e2" />
    <path
       id="path20"
       d="M 0,13.606989 C 0,8.8468029 0.38311178,7.0669638 1.5,6.6383736 2.325,6.3217914 3,5.2386464 3,4.2313848 3,1.7985202 4.9126932,0 7.5,0 10.087307,0 12,1.7985202 12,4.2313848 12,5.2386464 12.675,6.3217914 13.5,6.6383736 14.616888,7.0669638 15,8.8468029 15,13.606989 V 20 H 7.5 0 Z M 13,13.5 V 9 H 7.5 2 V 13.5 18 H 7.5 13 Z M 6.1766758,13.447179 C 6.6289472,11.275066 8.4036957,11.142157 8.8096291,13.25 9.0204305,14.344603 8.5299581,15 7.5,15 6.5392732,15 5.9880343,14.353163 6.1766758,13.447179 Z M 10.29815,6.3685171 C 11.275786,5.3908803 9.1038387,2 7.5,2 5.8961613,2 3.7242137,5.3908803 4.7018504,6.3685171 c 0.8179695,0.8179695 4.7783297,0.8179695 5.5962996,0 z"
       style="fill:#dcdcdc" />
    <path
       id="path18"
       d="M 0.70762376,19.37429 C 0.31843069,18.985097 0,16.041667 0,12.833333 0,8.3148148 0.33809524,7 1.5,7 2.4276236,7 3,6.0594649 3,4.5351838 3,1.2540958 6.3710706,-0.60758945 9.6264932,0.87568035 11.211016,1.5976373 12,2.7952807 12,4.4785612 12,6.0877237 12.559976,7 13.547717,7 c 1.263624,0 1.49307,1.1472306 1.25,6.25 L 14.5,19.5 7.9576238,19.790957 C 4.3593168,19.950983 1.0968168,19.763483 0.70762376,19.37429 Z M 13,13 V 8 H 7.5 2 v 5 5 H 7.5 13 Z M 6,13.5 C 6,12.675 6.675,12 7.5,12 8.325,12 9,12.675 9,13.5 9,14.325 8.325,15 7.5,15 6.675,15 6,14.325 6,13.5 Z M 10.444227,6.0902421 C 11.501489,4.3795575 9.7886416,2 7.5,2 5.2113584,2 3.4985115,4.3795575 4.5557727,6.0902421 c 0.7295287,1.1804023 5.1589259,1.1804023 5.8884543,0 z"
       style="fill:#d3d3d3" />
    <path
       id="path16"
       d="M 0.70762376,19.37429 C -0.65198406,18.014683 -0.08111063,7.9683555 1.3877856,7.4046871 2.1510677,7.1117883 3.0325792,5.5871039 3.3467001,4.0164996 4.3451958,-0.97597921 10.442079,-1.0903371 11.674276,3.8603011 c 0.361356,1.4518344 1.284417,3.103364 2.051245,3.6700659 0.971705,0.7181107 1.300323,2.687958 1.084356,6.5 L 14.5,19.5 7.9576238,19.790957 C 4.3593168,19.950983 1.0968168,19.763483 0.70762376,19.37429 Z M 13.804791,13.25 13.5,8.5 h -6 -6 L 1.1952088,13.25 0.89041762,18 H 7.5 14.109582 Z M 6,13.5 C 6,12.675 6.675,12 7.5,12 8.325,12 9,12.675 9,13.5 9,14.325 8.325,15 7.5,15 6.675,15 6,14.325 6,13.5 Z M 10.819551,4.75 C 10.569261,2.987678 9.8497627,2.5 7.5,2.5 5.1502373,2.5 4.4307387,2.987678 4.180449,4.75 3.8992891,6.729684 4.2981014,7 7.5,7 10.701899,7 11.100711,6.729684 10.819551,4.75 Z"
       style="fill:#cdcdcd" />
    <path
       id="path14"
       d="M 0.70762376,19.37429 C 0.31843069,18.985097 0,16.252544 0,13.301949 0,9.4558009 0.42459932,7.7742964 1.5,7.3616264 2.325,7.0450442 3,6.0039118 3,5.0479988 3,3.2049279 5.9673227,0 7.6737531,0 9.1707205,0 12,3.4149219 12,5.2217519 c 0,0.8603488 0.697619,1.8319721 1.550265,2.1591629 1.204156,0.462078 1.483228,1.8813262 1.25,6.3569892 L 14.5,19.5 7.9576238,19.790957 C 4.3593168,19.950983 1.0968168,19.763483 0.70762376,19.37429 Z M 13.80226,13.25 14.104519,8 H 7.5522596 1 v 4.833333 c 0,2.658334 0.3196331,5.152967 0.7102958,5.543629 0.3906627,0.390663 3.2031627,0.578163 6.25,0.416667 L 13.5,18.5 Z M 6.6394802,14.306147 C 5.5132962,13.179963 5.9535897,12 7.5,12 8.325,12 9,12.423442 9,12.940983 9,14.201961 7.4384108,15.105078 6.6394802,14.306147 Z M 10.819551,4.8521275 C 10.366153,1.8045974 7.597229,0.25945451 5.5838225,1.9304335 4.7127201,2.6533842 4,4.0897893 4,5.1224447 4,6.6085238 4.7442627,7 7.569551,7 c 3.083984,0 3.526082,-0.2921754 3.25,-2.1478725 z"
       style="fill:#c4c4c4" />
  </g>
</svg>
