<?xml version="1.0" encoding="UTF-8" standalone="no"?>
<svg
   xmlns:dc="http://purl.org/dc/elements/1.1/"
   xmlns:cc="http://creativecommons.org/ns#"
   xmlns:rdf="http://www.w3.org/1999/02/22-rdf-syntax-ns#"
   xmlns:svg="http://www.w3.org/2000/svg"
   xmlns="http://www.w3.org/2000/svg"
   viewBox="0 0 19.380165 15.363091"
   height="15.363091"
   width="19.380165"
   id="svg2"
   version="1.1">
  <metadata
     id="metadata8">
    <rdf:RDF>
      <cc:Work
         rdf:about="">
        <dc:format>image/svg+xml</dc:format>
        <dc:type
           rdf:resource="http://purl.org/dc/dcmitype/StillImage" />
        <dc:title></dc:title>
      </cc:Work>
    </rdf:RDF>
  </metadata>
  <defs
     id="defs6" />
  <path
     id="path12"
     d="m 0.31179371,14.182423 c -0.294015,-0.766192 -0.398911,-4.2706795 -0.233101,-7.7877501 L 0.38016571,0 H 9.8801657 19.380166 v 7.5000005 7.5000005 l -9.2669,0.287749 C 2.9154667,15.511252 0.72700871,15.26446 0.31179371,14.182423 Z M 17.880165,8.4874555 V 3.4749108 L 13.880165,6 9.8801657,8.5250895 5.8801657,6 l -4,-2.5250892 V 8.4874555 13.5 h 8 7.9999993 z M 13.573005,4.25 17.380165,2 l -3.75,-0.3103653 c -2.0625,-0.1707009 -5.4374993,-0.1707009 -7.4999993,0 L 2.3801657,2 l 3.5,2.1671544 c 1.925,1.1919349 3.586778,2.2044349 3.69284,2.25 C 9.6790667,6.4627194 11.479067,5.4875 13.573005,4.25 Z"
     style="fill:#c5c5c5" />
</svg>
