<?xml version="1.0" encoding="UTF-8" standalone="no"?>
<svg
   xmlns:dc="http://purl.org/dc/elements/1.1/"
   xmlns:cc="http://creativecommons.org/ns#"
   xmlns:rdf="http://www.w3.org/1999/02/22-rdf-syntax-ns#"
   xmlns:svg="http://www.w3.org/2000/svg"
   xmlns="http://www.w3.org/2000/svg"
   viewBox="0 0 16 16"
   height="16"
   width="16"
   id="svg3711"
   version="1.1">
  <metadata
     id="metadata3717">
    <rdf:RDF>
      <cc:Work
         rdf:about="">
        <dc:format>image/svg+xml</dc:format>
        <dc:type
           rdf:resource="http://purl.org/dc/dcmitype/StillImage" />
        <dc:title></dc:title>
      </cc:Work>
    </rdf:RDF>
  </metadata>
  <defs
     id="defs3715" />
  <g
     id="g3721">
    <path
       id="path3725"
       d="m 2,13.019052 c 0,-1.4752 4.5599321,-2.324191 8.506573,-1.583797 C 16.054223,12.476001 14.56479,14 8,14 4.7,14 2,13.558573 2,13.019052 Z M 0,6.056704 V 0 H 3.0084739 C 5.7683512,0 5.9135602,0.16554979 4.7657688,2.003456 3.1357171,4.6135836 4.8341185,7.5 8,7.5 11.165881,7.5 12.864283,4.6135836 11.234231,2.003456 10.08644,0.16554979 10.231649,0 12.991526,0 H 16 v 6.056704 6.056704 l -2.222506,-1.556704 c -2.85304,-1.9983465 -8.7019485,-1.9983465 -11.5549878,0 L 0,12.113408 Z M 6.4461493,4.9128677 C 5.4156279,3.2454491 7.7333585,1.3333585 9.1128677,2.7128677 10.266792,3.8667924 9.544589,6 8,6 7.5149187,6 6.8156859,5.5107905 6.4461493,4.9128677 Z"
       style="fill:#fcfcfc" />
    <path
       id="path3723"
       d="m 0,14.056704 c 0,-1.068813 1.0001278,-2.643813 2.2225062,-3.5 C 6.8727275,7.2995622 16,9.6182317 16,14.056704 16,15.819157 15.255522,16 8,16 0.74447807,16 0,15.819157 0,14.056704 Z M 14,13.045313 C 14,11.741 7.5875256,10.635724 4.5065731,11.408994 -0.05001863,12.552626 1.9014611,14 8,14 c 3.3,0 6,-0.429609 6,-0.954687 z M 5.039869,6.5480393 C 2.3834126,3.347205 6.2851025,-1.5697328 9.75,0.61229815 11.971731,2.011441 12.514729,4.6748638 10.960131,6.5480393 c -1.5446095,1.8611405 -4.3756525,1.8611405 -5.920262,0 z M 9.5538507,4.9128677 C 10.584372,3.2454491 8.2666415,1.3333585 6.8871323,2.7128677 5.7332076,3.8667924 6.455411,6 8,6 8.4850813,6 9.1843141,5.5107905 9.5538507,4.9128677 Z"
       style="fill:#c8c8c8" />
  </g>
</svg>
