<?xml version="1.0" encoding="UTF-8" standalone="no"?>
<svg
   xmlns:dc="http://purl.org/dc/elements/1.1/"
   xmlns:cc="http://creativecommons.org/ns#"
   xmlns:rdf="http://www.w3.org/1999/02/22-rdf-syntax-ns#"
   xmlns:svg="http://www.w3.org/2000/svg"
   xmlns="http://www.w3.org/2000/svg"
   viewBox="0 0 21 21.054344"
   height="21.054344"
   width="21"
   id="svg2"
   version="1.1">
  <metadata
     id="metadata8">
    <rdf:RDF>
      <cc:Work
         rdf:about="">
        <dc:format>image/svg+xml</dc:format>
        <dc:type
           rdf:resource="http://purl.org/dc/dcmitype/StillImage" />
        <dc:title></dc:title>
      </cc:Work>
    </rdf:RDF>
  </metadata>
  <defs
     id="defs6" />
  <g
     transform="translate(0,0.05434404)"
     id="g12">
    <path
       id="path16"
       d="M 0.00616074,13.75 C 0.01226352,6.568215 0.02697199,6.5282269 1.5694013,9.5 3.6917191,13.589035 7.6206773,17.560805 11.375796,19.413252 14.48753,20.948308 14.471062,20.954551 7.25,20.97723 L 0,21 Z M 19.5,20 c 0.339919,-0.55 0.816476,-1 1.059017,-1 C 20.801558,19 21,19.45 21,20 21,20.55 20.523442,21 19.940983,21 19.358524,21 19.160081,20.55 19.5,20 Z M 11.457381,17.137076 C 5.2170874,13.331625 0.35927867,5.2407213 2.8308343,2.7691657 4.6600412,0.93995878 7.1968798,3.7118831 5.775932,5.9871821 3.500736,9.63035 11.36965,17.499264 15.012818,15.224068 c 1.406461,-0.878349 2.081102,-0.815828 2.987994,0.27691 2.858957,3.444833 -1.705787,4.586186 -6.543431,1.636098 z m 7.974504,-3.247288 C 19.036867,13.250635 17.361224,13.004252 15.482657,13.309101 11.104548,14.019571 6.8776374,9.9135606 7.6950644,5.7442536 7.9934402,4.2223807 7.6800928,2.3194617 6.9952309,1.4942536 5.9134679,0.19080888 6.7284595,0 13.377555,0 H 21 v 7.5 c 0,7.459484 -0.257791,8.509936 -1.568115,6.389788 z M 0,1 C 0,0.45 0.47655765,0 1.059017,0 1.6414763,0 1.8399187,0.45 1.5,1 1.1600813,1.55 0.68352366,2 0.44098301,2 0.19844235,2 0,1.55 0,1 Z"
       style="fill:#fcfcfc" />
    <path
       id="path14"
       d="M 11.200483,19.351501 C 3.9805169,15.742585 -2.0492769,5.1741539 1.0090974,1.4890383 3.9654903,-2.0731973 8.6483257,1.0083717 7.674898,5.8755099 6.8876279,9.8118603 10.774836,13.5 15.710921,13.5 c 4.221334,0 6.424124,2.469442 4.683102,5.25 -1.477478,2.359656 -5.190221,2.602568 -9.19354,0.601501 z m 7.32659,-1.395306 c 0.354809,-0.574093 0.117991,-1.67894 -0.526261,-2.455217 C 17.09392,14.40824 16.419279,14.345719 15.012818,15.224068 11.36965,17.499264 3.500736,9.63035 5.775932,5.9871821 6.6619083,4.5685086 6.5823678,3.8982855 5.4128352,2.9276597 3.3193985,1.1902615 1.5717545,3.1575982 2.3729241,6.3497119 4.0981668,13.223627 16.115639,21.857977 18.527073,17.956195 Z"
       style="fill:#cacaca" />
  </g>
</svg>
